<svg xmlns="http://www.w3.org/2000/svg" version="1.1" xmlns:xlink="http://www.w3.org/1999/xlink" width="512" height="512" x="0" y="0" viewBox="0 0 66 66" style="enable-background:new 0 0 512 512" xml:space="preserve" class=""><g><path d="M59 15c-3.31 0-6 2.69-6 6h12c0-3.31-2.69-6-6-6zM59 26c1.66 0 3-1.34 3-3h-6c0 1.66 1.34 3 3 3zM3 56h62v6H3zM36 37c5.52 0 10-5.37 10-12s-4.48-12-10-12-10 5.37-10 12 4.48 12 10 12zm.06-19.09a.987.987 0 0 1 1.41.01c.39.39.39 1.03-.01 1.41l-5.14 5.1a.992.992 0 0 1-1.41-.01.987.987 0 0 1 .01-1.41zm-6.53 1.27 2.67-2.64a.987.987 0 0 1 1.41.01c.39.39.39 1.03-.01 1.41l-2.67 2.64a.992.992 0 0 1-1.41-.01c-.38-.39-.38-1.02.01-1.41zM5 29h12v9H5zM5 40h12v3H5zM60 13.07V4h-2v9.07c.33-.04.66-.07 1-.07s.67.03 1 .07zM1 32c0 .55.45 1 1 1h1v-2H2c-.55 0-1 .45-1 1zM21 32c0-.55-.45-1-1-1h-1v2h1c.55 0 1-.45 1-1zM44.88 54A6.978 6.978 0 0 0 47 49H21c0 1.95.81 3.73 2.12 5zM51 48h6v6h-6zM27 42.5c0-.83.67-1.5 1.5-1.5s1.5.67 1.5 1.5v.5c0 .55.45 1 1 1s1-.45 1-1v-.5c0-1.93-1.57-3.5-3.5-3.5S25 40.57 25 42.5V47h2z" fill="#000000" opacity="1" data-original="#000000"></path></g></svg>