<svg xmlns="http://www.w3.org/2000/svg" version="1.1" xmlns:xlink="http://www.w3.org/1999/xlink" width="512" height="512" x="0" y="0" viewBox="0 0 510 510" style="enable-background:new 0 0 512 512" xml:space="preserve" class=""><g><path d="M509.202 255c0-140.929-114.049-255-255-255-337.907 12.344-337.837 497.697.003 510 140.927 0 254.997-114.049 254.997-255zm-255 180c-99.252 0-180-80.748-180-180 9.05-238.466 350.987-238.401 360 .002 0 99.25-80.748 179.998-180 179.998z" fill="#000000" opacity="1" data-original="#000000" class=""></path><path d="M254.202 240c-8.271 0-15 6.729-15 15 .753 19.872 29.25 19.867 30 0 0-8.271-6.729-15-15-15z" fill="#000000" opacity="1" data-original="#000000" class=""></path><path d="M383.425 178.916a151.132 151.132 0 0 0-52.659-52.855l-12.211 12.283c-35.541 35.541-93.164 35.541-128.705 0-4.177-4.215-8.227-8.304-12.184-12.299a151.12 151.12 0 0 0-52.689 52.877l12.569 12.582c35.541 35.541 35.541 93.165 0 128.706-4.346 4.284-8.334 8.218-11.999 11.833a151.147 151.147 0 0 0 52.096 51.898l12.207-12.285c35.541-35.541 93.164-35.541 128.705 0l12.211 12.283a151.158 151.158 0 0 0 52.092-51.897c-3.667-3.617-7.655-7.551-11.999-11.833-35.541-35.541-35.541-93.165 0-128.706l12.566-12.587zM254.202 300c-24.812 0-45-20.186-45-45 2.263-59.617 87.747-59.6 90 .001 0 24.813-20.187 44.999-45 44.999zM27.886 81.73a288.45 288.45 0 0 1 53.057-53.055c-4.655-4.653-9.213-9.2-13.708-13.675C52.591.356 28.846.356 14.202 15s-14.644 38.389 0 53.033L27.886 81.73zM480.51 81.719c4.654-4.654 9.208-9.205 13.691-13.686 14.645-14.645 14.645-38.389 0-53.033S455.812.356 441.168 15l-13.643 13.725a288.436 288.436 0 0 1 52.985 52.994zM27.997 428.417l-13.795 13.55c-14.644 14.645-14.644 38.389 0 53.033 14.644 14.645 38.389 14.645 53.033 0l13.625-13.738a288.526 288.526 0 0 1-52.863-52.845zM480.407 428.417a288.539 288.539 0 0 1-52.881 52.858L441.169 495c14.645 14.645 38.389 14.645 53.033 0 14.645-14.645 14.645-38.389 0-53.033l-13.795-13.55z" fill="#000000" opacity="1" data-original="#000000" class=""></path></g></svg>