<svg xmlns="http://www.w3.org/2000/svg" version="1.1" xmlns:xlink="http://www.w3.org/1999/xlink" width="512" height="512" x="0" y="0" viewBox="0 0 56 56" style="enable-background:new 0 0 512 512" xml:space="preserve" class=""><g><g fill="#000" fill-rule="nonzero"><rect width="8" height="28" rx="1" fill="#000000" opacity="1" data-original="#000000" class=""></rect><rect width="28" height="8" x="28" y="48" rx="1" fill="#000000" opacity="1" data-original="#000000" class=""></rect><path d="M30 46h24V36C53.98 17.231 38.769 2.02 20 2H10v24h10c5.52.006 9.994 4.48 10 10zM15 6h-2a1 1 0 0 1 0-2h2a1 1 0 0 1 0 2zm5 0h-1a1 1 0 0 1 0-2h1a32.081 32.081 0 0 1 23.621 10.433 1 1 0 0 1-1.476 1.349A30.075 30.075 0 0 0 20 6z" fill="#000000" opacity="1" data-original="#000000" class=""></path></g></g></svg>