<?xml version="1.0" encoding="iso-8859-1"?>
<!-- Uploaded to: SVG Repo, www.svgrepo.com, Generator: SVG Repo Mixer Tools -->
<svg fill="#000000" height="800px" width="800px" version="1.1" id="Layer_1" xmlns="http://www.w3.org/2000/svg" xmlns:xlink="http://www.w3.org/1999/xlink" 
	 viewBox="0 0 512 512" xml:space="preserve">
<g>
	<g>
		<path d="M469.803,51.2H460.8V16.597C460.8,7.441,453.35,0,444.203,0h-86.263c-9.156,0-16.606,7.441-16.606,16.597V51.2h-8.994
			c-9.156,0-16.606,7.441-16.606,16.597v35.063c0,9.156,7.45,16.606,16.606,16.606h7.347c-8.098,43.742-46.925,76.8-92.22,76.8
			h-51.2v-59.733h15.94c10.035,0,18.193-8.166,18.193-18.202V86.46c0-10.035-8.158-18.193-18.193-18.193h-15.94V18.193
			C196.267,8.158,188.109,0,178.074,0H77.935C67.9,0,59.733,8.158,59.733,18.193v50.074H43.802
			c-10.035,0-18.202,8.158-18.202,18.193v31.872c0,10.035,8.166,18.202,18.202,18.202h15.932v238.933H43.802
			c-10.035,0-18.202,8.158-18.202,18.193v31.872c0,10.035,8.166,18.202,18.202,18.202h15.932v50.065
			C59.733,503.834,67.9,512,77.935,512h100.139c10.035,0,18.193-8.166,18.193-18.202v-50.065h15.94
			c10.035,0,18.193-8.166,18.193-18.202V393.66c0-10.035-8.158-18.193-18.193-18.193h-15.94v-59.733h51.2
			c112.068,0,203.887-85.572,212.582-196.267h9.754c9.148,0,16.597-7.45,16.597-16.606V67.797
			C486.4,58.641,478.95,51.2,469.803,51.2z M212.207,392.533c0.623,0,1.126,0.503,1.126,1.126v31.872
			c0,0.623-0.503,1.135-1.126,1.135h-24.474H68.267H43.802c-0.623,0-1.135-0.512-1.135-1.135V393.66
			c0-0.623,0.512-1.126,1.135-1.126h24.465h119.467H212.207z M187.733,119.467H68.267H43.802c-0.623,0-1.135-0.512-1.135-1.135
			V86.46c0-0.623,0.512-1.126,1.135-1.126h24.465h119.467h24.474c0.623,0,1.126,0.503,1.126,1.126v31.872
			c0,0.623-0.503,1.135-1.126,1.135H187.733z M460.945,102.426V102.4H341.581l-0.034,0.435l-8.747,0.026V68.267l8.533-0.034v0.034
			H460.8v-0.444l8.533-0.026l0.469,34.603L460.945,102.426z"/>
	</g>
</g>
</svg>