<svg xmlns="http://www.w3.org/2000/svg" version="1.1" xmlns:xlink="http://www.w3.org/1999/xlink" width="512" height="512" x="0" y="0" viewBox="0 0 512 512" style="enable-background:new 0 0 512 512" xml:space="preserve" class=""><g><path d="M0 248.059v120c0 8.285 6.715 15 15 15h98.047v-150H15c-8.285 0-15 6.714-15 15zM316.004 218.203V192.06c0-.797-.082-1.57-.2-2.332h-119.6c-.122.761-.2 1.539-.2 2.332v26.164l-21.684 14.836h-31.277v150h33.328c6.246 0 11.379 1.015 17.16 3.402a2881.03 2881.03 0 0 1 12.024 5c13.336 5.562 27.125 11.32 35.23 14.16 5.05 1.77 10.133 2.652 15.219 2.652 5.082 0 10.164-.882 15.21-2.652 10.364-3.633 32.13-12.527 47.614-19.039 5.871-2.469 11.09-3.523 17.453-3.523h32.762v-150h-31.356zM497 233.059h-97.957v150H497c8.285 0 15-6.715 15-15v-120c0-8.286-6.715-15-15-15zM366 0H146c-16.57 0-30 13.434-30 30s13.43 30 30 30h220c16.57 0 30-13.43 30-30 0-16.566-13.43-30-30-30zM226 90h60v69.727h-60zm0 0" fill="#000000" opacity="1" data-original="#000000" class=""></path></g></svg>