<svg xmlns="http://www.w3.org/2000/svg" version="1.1" xmlns:xlink="http://www.w3.org/1999/xlink" width="512" height="512" x="0" y="0" viewBox="0 0 96 96" style="enable-background:new 0 0 512 512" xml:space="preserve" class=""><g><path d="M25.12 73.92h-4.81a5.41 5.41 0 0 1-5.16-3.86l-1.31-4.45a1 1 0 1 0-1.92.56l1.31 4.46a7.43 7.43 0 0 0 7.08 5.29h4.81a1 1 0 1 0 0-2Z" fill="#000000" opacity="1" data-original="#000000" class=""></path><path d="M92.32 46.49h-3.9a4.58 4.58 0 0 0-2.3-7.36 4.6 4.6 0 0 0-7.31-4.69 4.59 4.59 0 0 0-8 2.64 4.6 4.6 0 0 0-3.5 1.07A4.6 4.6 0 0 0 60 40.24a4.57 4.57 0 0 0-3.51.65 6.27 6.27 0 0 0-11.21 3.84 6 6 0 0 0 .26 1.76h-5.8a4.24 4.24 0 0 0-5.89-4 6.28 6.28 0 0 0-11.19 4h-4.78v-.7a2.92 2.92 0 0 0-3.08-2.92v-5.64A2.19 2.19 0 0 0 12.62 35V16.43a6.32 6.32 0 1 1 12.63.21A5.24 5.24 0 0 0 21 21.79v.5a1 1 0 0 0 1 1h8.5a1 1 0 0 0 1-1v-.5a5.24 5.24 0 0 0-4.25-5.15 8.32 8.32 0 1 0-16.63-.21V35a2.19 2.19 0 0 0-2.18 2.19v5.64a2.92 2.92 0 0 0-3.07 2.92v.7H3.68a3.69 3.69 0 0 0 0 7.37h.45L9.4 71.76a11.44 11.44 0 0 0 9.45 8.06l-2.79 6.67a1 1 0 0 0 .94 1.39h6.66a1 1 0 0 0 .92-.62l3.07-7.34h40.72l3.07 7.34a1 1 0 0 0 .92.62H79a1 1 0 0 0 .92-1.39l-2.79-6.67a11.44 11.44 0 0 0 9.45-8.06l5.27-17.9h.45a3.69 3.69 0 0 0 0-7.37Zm-62.86-25.2H23a3.25 3.25 0 0 1 6.42 0Zm22.06 19.17a4.23 4.23 0 0 1 3.82 2.4 1 1 0 0 0 1.67.21 2.56 2.56 0 0 1 3.25-.59 1 1 0 0 0 1.49-.86 2.6 2.6 0 0 1 4.75-1.42 1 1 0 0 0 1.66 0 2.58 2.58 0 0 1 3.33-.85 1 1 0 0 0 1.42-1.16 2.58 2.58 0 0 1 4.85-1.74 1 1 0 0 0 1.74.14 2.6 2.6 0 0 1 4.75 1.46 2.56 2.56 0 0 1-.41 1.39 1 1 0 0 0 .9 1.54h.14a2.59 2.59 0 0 1 1.77 4.5 1.16 1.16 0 0 0-.3 1H75a3.33 3.33 0 0 0-3.32-3h-10a3.33 3.33 0 0 0-3.31 3H47.64a4.26 4.26 0 0 1 3.88-6.02ZM73 59.21H60.36V46.79a1.34 1.34 0 0 1 1.33-1.33h10A1.33 1.33 0 0 1 73 46.79Zm-12.67 2H73v2.33H60.36ZM32.67 44.35a1 1 0 0 0 1.47.31 2.24 2.24 0 0 1 3.6 1.78c0 .1 1 .05-13.08.05a4.28 4.28 0 0 1 8.01-2.14Zm-22.23-1.67v-5.45a.18.18 0 0 1 .18-.19h2a.18.18 0 0 1 .19.19v5.45a.18.18 0 0 1-.19.19h-2a.18.18 0 0 1-.18-.19Zm-3.06 3.11a.92.92 0 0 1 .91-.92H15a.92.92 0 0 1 .92.92v.7H7.38ZM2 50.17a1.68 1.68 0 0 1 1.68-1.68h54.68v3.37H3.68A1.69 1.69 0 0 1 2 50.17Zm21 35.71h-4.52l2.49-6h4.49Zm54.55 0H73l-2.49-6H75Zm7.16-14.69a9.42 9.42 0 0 1-9 6.73h-55.4a9.42 9.42 0 0 1-9-6.73L6.22 53.86h52.14v10.68a1 1 0 0 0 1 1H74a1 1 0 0 0 1-1V53.86h14.78Zm7.64-19.33H75v-3.37h17.32a1.69 1.69 0 0 1 0 3.37Z" fill="#000000" opacity="1" data-original="#000000" class=""></path><path d="M31.5 26.83a1 1 0 0 0-2 0v2a1 1 0 1 0 2 0ZM30.5 31.39a1 1 0 0 0-1 1v2a1 1 0 1 0 2 0v-2a1 1 0 0 0-1-1ZM25.38 28v5.41a1 1 0 0 0 2 0V28a1 1 0 0 0-2 0ZM23 25.54a1 1 0 0 0-2 0v2a1 1 0 0 0 2 0ZM22 29.7a1 1 0 0 0-1 1v3.75a1 1 0 0 0 2 0V30.7a1 1 0 0 0-1-1Z" fill="#000000" opacity="1" data-original="#000000" class=""></path></g></svg>