<svg xmlns="http://www.w3.org/2000/svg" version="1.1" xmlns:xlink="http://www.w3.org/1999/xlink" width="512" height="512" x="0" y="0" viewBox="0 0 64 64" style="enable-background:new 0 0 512 512" xml:space="preserve" class=""><g><path d="M32 29a.99.99 0 0 0-.98.901c-2.505-.473-4.397-2.98-3.95-5.593l-4.063-2.346C20.976 27.577 25.125 33.95 31 34.446v1.003c-6.623-.485-11.285-7.73-8.871-13.994l-3.951-2.281C14.069 28.349 20.994 39.524 31 39.949v1c-10.795-.474-18.181-12.387-13.69-22.276-.12-.107-4.409-2.447-4.299-2.581-6.52 13.12 3.397 29.442 17.99 29.856-.038 1.344 1.971 1.4 2 .051v-16a1 1 0 0 0-1-1zM34 35.304v4.547c9.39-1.025 15.695-11.66 11.905-20.45l-3.951 2.281C44.056 27.555 40.01 34.276 34 35.304z" fill="#000000" opacity="1" data-original="#000000" class=""></path><path d="m51.13 16.384-4.347 2.51c4.162 9.438-2.64 20.949-12.783 21.968V45.9c13.948-1.05 23.214-16.774 17.13-29.515z" fill="#000000" opacity="1" data-original="#000000" class=""></path><path d="M53 45V31.562a22.034 22.034 0 0 1-6 9.51v3.927a1 1 0 0 0-1 1v3a1 1 0 0 0 1 1h6a1 1 0 0 0 1-1v-3a1 1 0 0 0-1-1zM17 45v-3.927a22.04 22.04 0 0 1-6-9.51v13.438a1 1 0 0 0-1 1v4c-.004.603.527 1.053 1.119 1l1.032 8.126c.063.5.488.874.992.874h1.715a.999.999 0 0 0 .992-.874l1.032-8.126c.592.053 1.122-.397 1.119-1v-4a1 1 0 0 0-1-1zM34 34.284c5.264-1.018 8.797-6.876 7.075-12.095l-3.94 2.275c-.058.034-.12.054-.181.075.288 2.197-1.107 4.285-3.031 5.076.154.008.049 4.504.078 4.67zM51.053 14a1.003 1.003 0 0 0-1.412-.34C41.558.847 22.44.853 14.364 13.662c-1.141-.713-2.211.998-1.05 1.704l14.1 8.141c1.242.662 2.163-1.22.866-1.81 1.779-2.223 5.662-2.225 7.437.003-1.187.643-.222 2.407.956 1.758l14.015-8.092A.999.999 0 0 0 51.054 14zM32 9c5.553 0 10.444 2.851 13.313 7.159l-.868.501c-5.797-8.833-19.094-8.829-24.886.002l-.865-.5C21.563 11.854 26.448 8.999 32 8.999zm0 6.5c-3.151 0-5.928 1.556-7.656 3.925l-.866-.5c3.997-5.851 13.055-5.848 17.053-.005l-.864.499C37.939 17.049 35.151 15.5 32 15.5z" fill="#000000" opacity="1" data-original="#000000" class=""></path></g></svg>