<svg xmlns="http://www.w3.org/2000/svg" version="1.1" xmlns:xlink="http://www.w3.org/1999/xlink" width="512" height="512" x="0" y="0" viewBox="0 0 286.612 216.95" style="enable-background:new 0 0 512 512" xml:space="preserve" class=""><g><path d="M205.662 179.286c-44.708 0-80.95 8.373-80.95 18.703s36.242 18.703 80.95 18.703 80.95-8.374 80.95-18.703c0-10.33-36.242-18.703-80.95-18.703zm73.466 18.588c-6.948-6.256-37.199-10.964-73.466-10.964s-66.518 4.708-73.466 10.964c-.003-.05-.02-.099-.02-.148 0-7.57 32.9-13.706 73.486-13.706s73.486 6.136 73.486 13.706c0 .05-.017.098-.02.148zM91.127 143.061 71.15 120.974a457.04 457.04 0 0 0 7.994-3.633c16.161-7.54 30.57-15.394 41.555-22.408l4.902 1.497a8.004 8.004 0 0 0 9.988-5.314 7.97 7.97 0 0 0-.724-6.322c5.666-4.753 8.46-8.543 7.439-10.73v-.001l-2.772-5.945c-2.037 3.483-6.804 8.246-16.756 15.066-12.083 8.279-28.898 17.578-47.35 26.186-7 3.266-13.922 6.285-20.591 8.992l2.526 2.809a10.428 10.428 0 0 1 2.677 7.577A10.43 10.43 0 0 1 56.57 136a10.476 10.476 0 0 1-3.627 2.118l16.55 18.297 1.368 47.392c.196 6.779 5.752 12.14 12.488 12.14.122 0 .245-.002.367-.005 6.9-.2 12.334-5.955 12.135-12.855l-1.5-52a12.504 12.504 0 0 0-3.225-8.026zM15.434 105.95l-6.12-6.808-.15.566c-1.36 3.084-1.49 6.699-.039 10.033l.23.527a143.146 143.146 0 0 1 5.189-3.718c.29-.199.595-.4.89-.6zM33.625 126.183a210.912 210.912 0 0 1-8.69 2.643c-11.617 3.244-18.33 3.837-22.308 3.16L5.4 137.93l-.001.001c1.165 2.497 7.119 2.528 16.239.554l6.519 14.976L7.01 199.202c-2.896 6.266-.165 13.694 6.102 16.592a12.45 12.45 0 0 0 5.237 1.156c4.722 0 9.242-2.69 11.355-7.258l23.5-50.834a12.498 12.498 0 0 0 .114-10.234l-4.337-9.964a10.511 10.511 0 0 1-7.238-3.45z" fill="#000000" opacity="1" data-original="#000000" class=""></path><circle cx="67.455" cy="22.502" r="22.5" transform="rotate(-68.54 67.421 22.496)" fill="#000000" opacity="1" data-original="#000000" class=""></circle><path d="M17.787 108.567C5.567 116.786-1.307 123.554.207 126.8c1.706 3.658 13.679 2.03 30.863-3.46zM73.951 106.21c37.805-17.636 66.083-37.012 63.16-43.277-2.922-6.265-35.939 2.953-73.744 20.59-9.894 4.615-19.125 9.349-27.326 13.937l16.31 18.14a435.987 435.987 0 0 0 21.6-9.39z" fill="#000000" opacity="1" data-original="#000000" class=""></path><path d="m4.355 89.888 39.247 43.651a7.98 7.98 0 0 0 5.952 2.652 8 8 0 0 0 5.946-13.349l-37.024-41.18c.476-6.134 1.827-14.506 4.317-21.539l2.467.472c-2.117 5.821-3.574 13.13-4.203 20.199L33.65 94.799c8.593-4.832 18.17-9.737 28.243-14.436a461.882 461.882 0 0 1 9.462-4.283l2.13-8.063 4.203 5.34A379.39 379.39 0 0 1 93.21 67.21L76.404 45.856a24.912 24.912 0 0 1-8.921 1.648c-.937 0-1.889-.053-2.825-.159-8.258-.93-15.127-5.808-18.946-12.535l-12.887-2.914a7.993 7.993 0 0 0-2.081-.47l-.22-.05c-.021.008-.041.02-.062.028a7.954 7.954 0 0 0-3.024.416C16.611 35.518 10.445 46.25 6.934 57.088 2.939 69.418 2.38 81.886 2.308 84.302a8 8 0 0 0 2.047 5.587z" fill="#000000" opacity="1" data-original="#000000" class=""></path></g></svg>