<svg xmlns="http://www.w3.org/2000/svg" version="1.1" xmlns:xlink="http://www.w3.org/1999/xlink" width="512" height="512" x="0" y="0" viewBox="0 0 36 36" style="enable-background:new 0 0 512 512" xml:space="preserve" class=""><g><path d="M27.94 14c0 .55-.45 1-1 1h-1.15v3h-7.7v-3h-1.14c-.56 0-1-.45-1-1s.44-1 1-1h9.99c.55 0 1 .45 1 1zM28.44 33c0 .55-.45 1-1 1h-11c-.55 0-1-.45-1-1s.45-1 1-1h1.65v-4h7.7v4h1.65c.55 0 1 .45 1 1z" fill="#000000" opacity="1" data-original="#000000" class=""></path><path d="M10.75 9v10c0 .55.45 1 1 1h19c.83 0 1.5.67 1.5 1.5V23c0 1.66-1.34 3-3 3H6.75c-1.66 0-3-1.34-3-3V5c0-1.66 1.34-3 3-3h22.5c1.66 0 3 1.34 3 3v1.5c0 .82-.67 1.5-1.5 1.5h-19c-.55 0-1 .45-1 1z" fill="#000000" opacity="1" data-original="#000000" class=""></path></g></svg>