<svg xmlns="http://www.w3.org/2000/svg" version="1.1" xmlns:xlink="http://www.w3.org/1999/xlink" width="512" height="512" x="0" y="0" viewBox="0 0 543.195 543.195" style="enable-background:new 0 0 512 512" xml:space="preserve" class=""><g><path d="M543.195 135.576v272.043c-.027 9.218-7.493 16.683-16.71 16.71h-34.646c-9.216.012-16.698-7.449-16.71-16.666V135.576c-.012-9.217 7.449-16.698 16.666-16.71h34.691c9.217.027 16.683 7.492 16.709 16.71zM79.207 158.413h384.782v226.369H79.207zM68.067 135.576v272.043c.012 9.216-7.449 16.698-16.666 16.71H16.71C7.492 424.302.027 416.836 0 407.619V135.576c.027-9.218 7.493-16.683 16.71-16.71h34.646c9.217-.012 16.698 7.449 16.71 16.666l.001.044z" fill="#000000" opacity="1" data-original="#000000"></path></g></svg>