<svg xmlns="http://www.w3.org/2000/svg" version="1.1" xmlns:xlink="http://www.w3.org/1999/xlink" width="512" height="512" x="0" y="0" viewBox="0 0 56 44" style="enable-background:new 0 0 512 512" xml:space="preserve" class=""><g><path fill="#000000" fill-rule="nonzero" d="M25 4h6v2h-6zM0 39V25a1 1 0 0 1 1-1h8v16H1a1 1 0 0 1-1-1zm13 3h-1a1 1 0 0 1-1-1V23a1 1 0 0 1 1-1h1zm43-17v14a1 1 0 0 1-1 1h-8V24h8a1 1 0 0 1 1 1zm-13-3h1a1 1 0 0 1 1 1v18a1 1 0 0 1-1 1h-1zm-2-1v22a1 1 0 0 1-1 1H23V24a1 1 0 0 0-2 0v20h-5a1 1 0 0 1-1-1V21a1 1 0 0 1 1-1h24a1 1 0 0 1 1 1zm-8-3H23v-2h10zm2-4H21v-2h14zm.185-4H22a1 1 0 0 1 0-2h13.185a3 3 0 0 0 2.258-1.024l4.61-5.268A5 5 0 0 1 45.815 0H55a1 1 0 0 1 0 2h-9.185a3 3 0 0 0-2.258 1.024l-4.61 5.268A5 5 0 0 1 35.185 10z" opacity="1" data-original="#000000" class=""></path></g></svg>