<?xml version="1.0" encoding="iso-8859-1"?>
<!-- Uploaded to: SVG Repo, www.svgrepo.com, Generator: SVG Repo Mixer Tools -->
<svg fill="#000000" height="800px" width="800px" version="1.1" id="Layer_1" xmlns="http://www.w3.org/2000/svg" xmlns:xlink="http://www.w3.org/1999/xlink" 
	 viewBox="0 0 512 512" xml:space="preserve">
<g>
	<g>
		<path d="M442.598,392.533h-15.932V358.4c0-94.114-76.561-170.667-170.667-170.667c-18.825,0-34.133-15.309-34.133-34.133v-34.133
			h15.932c10.035,0,18.202-8.166,18.202-18.202V69.402c0-10.035-8.166-18.202-18.202-18.202h-15.932V18.202
			C221.867,8.166,213.7,0,203.665,0h-100.13C93.5,0,85.333,8.166,85.333,18.202V51.2H69.402C59.366,51.2,51.2,59.366,51.2,69.402
			v31.863c0,10.035,8.166,18.202,18.202,18.202h15.932V153.6c0,94.106,76.561,170.667,170.667,170.667
			c18.825,0,34.133,15.309,34.133,34.133v34.133h-15.932c-10.035,0-18.202,8.166-18.202,18.202v31.863
			c0,10.035,8.166,18.202,18.202,18.202h15.932v32.998c0,10.035,8.166,18.202,18.202,18.202h100.13
			c10.035,0,18.202-8.166,18.202-18.202V460.8h15.932c10.035,0,18.202-8.166,18.202-18.202v-31.863
			C460.8,400.7,452.634,392.533,442.598,392.533z M93.867,102.4H69.402c-0.623,0-1.135-0.512-1.135-1.135V69.402
			c0-0.631,0.512-1.135,1.135-1.135h24.465h119.467h24.465c0.623,0,1.135,0.503,1.135,1.135v31.863c0,0.623-0.512,1.135-1.135,1.135
			h-24.465H93.867z M443.733,442.598c0,0.623-0.512,1.135-1.135,1.135h-24.465H298.667h-24.465c-0.623,0-1.135-0.512-1.135-1.135
			v-31.863c0-0.631,0.512-1.135,1.135-1.135h24.465h119.467h24.465c0.623,0,1.135,0.504,1.135,1.135V442.598z"/>
	</g>
</g>
</svg>