<svg xmlns="http://www.w3.org/2000/svg" version="1.1" xmlns:xlink="http://www.w3.org/1999/xlink" width="512" height="512" x="0" y="0" viewBox="0 0 2048 2048" style="enable-background:new 0 0 512 512" xml:space="preserve" class=""><g><path d="M1123.91 302.42v153.4H924.09v-153.4c0-25.59 20.82-46.42 46.42-46.42h106.99c25.59 0 46.41 20.82 46.41 46.42zM1204.85 535.99v61.83h-361.7v-61.83c0-25.59 20.82-46.42 46.42-46.42h268.86c25.59.01 46.42 20.83 46.42 46.42zM1358.02 1735.32c-30.03 36.03-74.15 56.68-121.04 56.68H811.03c-46.89 0-91.01-20.66-121.04-56.68-29.96-35.92-42.33-82.89-33.95-128.85.13-.68.25-1.34.38-2.02 4.5-23.87 8.6-47.88 12.28-72h710.62c3.67 24.13 7.76 48.13 12.27 72.01.13.68.25 1.34.37 2 8.39 45.97-3.98 92.94-33.94 128.86zM1391.96 817.1c-.13.66-.25 1.34-.38 2.01-4.5 23.87-8.6 47.88-12.27 72H668.69c-3.68-24.12-7.77-48.13-12.28-72-.13-.66-.25-1.34-.38-2-8.39-45.96 3.99-92.93 33.95-128.86 30.03-36.02 74.15-56.67 121.04-56.67h425.94c46.89 0 91.01 20.66 121.04 56.67 29.98 35.93 42.35 82.9 33.96 128.85zM1374.45 924.88h-700.9c12.86 94.61 19.35 190.71 19.35 286.91 0 96.19-6.49 192.3-19.35 286.9h700.91c-12.85-94.61-19.35-190.71-19.35-286.9-.01-96.2 6.49-192.31 19.34-286.91zm-246.82 205.96c-.33 9.11-7.82 16.28-16.86 16.28-.2 0-.41-.01-.61-.01-9.33-.34-16.6-8.17-16.27-17.48 1.52-42.38-27.27-65.66-56.47-69.94-31.19-4.57-68.15 11.88-80.41 58.91-8.26 31.71 11.9 53.85 67.42 74.04 13.36 4.86 39.04 15.77 61.16 34.35 29.6 24.85 43 55.51 38.78 88.67-2.34 24.54-16.81 46.71-40.74 62.46-19.79 13.02-44.31 20.28-68.08 20.28-1.92 0-3.84-.04-5.76-.14-25.18-1.27-46.86-10.53-62.7-26.77-17.84-18.32-27.1-44.91-26.8-76.88.09-9.27 7.64-16.72 16.88-16.72h.17c9.32.09 16.81 7.72 16.71 17.05-.58 60.2 39.97 68.74 57.43 69.62 35.01 1.75 76.38-20.22 79.29-52.27.02-.22.04-.44.07-.66 6.83-52.16-57.94-79.95-77.95-87.23-18.83-6.85-46.11-18.04-65.59-36.22-22.8-21.27-30.74-48.26-22.98-78.07 7.84-30.04 24.18-53.8 47.25-68.69 20.74-13.38 45.86-18.75 70.72-15.11 23.79 3.49 45.37 14.97 60.76 32.32 17.1 19.22 25.58 44.2 24.58 72.21z" fill="#000000" opacity="1" data-original="#000000"></path></g></svg>