<svg xmlns="http://www.w3.org/2000/svg" version="1.1" xmlns:xlink="http://www.w3.org/1999/xlink" width="512" height="512" x="0" y="0" viewBox="0 0 1600 1600" style="enable-background:new 0 0 512 512" xml:space="preserve" class=""><g><path d="M1190.9 132.2c-22.59 0-40.97-18.39-40.97-40.98s18.39-40.97 40.97-40.97h336.13c22.6 0 40.97 18.39 40.97 40.97 0 22.6-18.38 40.98-40.97 40.98zM1237.99 165.96h241.94V478.6h-241.94zM1190.9 594.31c-22.59 0-40.97-18.38-40.97-40.97s18.39-40.97 40.97-40.97h336.13c22.6 0 40.97 18.38 40.97 40.97s-18.38 40.97-40.97 40.97zM1479.93 628.07v398.53c0 58.69-11.52 115.69-34.24 169.4-21.92 51.83-53.27 98.34-93.19 138.26-39.93 39.92-86.44 71.27-138.26 93.2-30.48 12.88-62.23 22.23-94.66 27.84v-250.59c71.31-29.96 118.42-100.07 118.42-178.12V628.07zM1003.86 1172.66c0-22.59 18.39-40.97 40.98-40.97s40.97 18.39 40.97 40.97v336.13c0 22.59-18.39 40.97-40.97 40.97-22.6 0-40.98-18.39-40.98-40.97zM970.1 1204.71v250.59c-32.43-5.61-64.19-14.96-94.66-27.84-51.82-21.93-98.34-53.29-138.25-93.2-39.93-39.91-71.28-86.43-93.2-138.26-22.72-53.72-34.24-110.72-34.24-169.4V869h241.94v157.59c-.01 78.05 47.11 148.16 118.41 178.12zM562.65 835.25c-22.59 0-40.97-18.39-40.97-40.97 0-22.6 18.39-40.98 40.97-40.98h336.13c22.59 0 40.97 18.39 40.97 40.98s-18.39 40.97-40.97 40.97zM851.68 641.55v77.98H609.74v-77.98c0-106.51-86.64-193.16-193.15-193.16H147.72V206.45h268.87c58.69 0 115.67 11.52 169.39 34.24 51.81 21.91 98.33 53.26 138.26 93.19 39.92 39.92 71.27 86.43 93.19 138.26 22.73 53.72 34.25 110.71 34.25 169.41zM113.96 495.48c0 22.6-18.39 40.97-40.98 40.97S32 518.08 32 495.48V159.36c0-22.6 18.38-40.98 40.97-40.98s40.98 18.39 40.98 40.98z" fill="#000000" opacity="1" data-original="#000000" class=""></path></g></svg>