<svg xmlns="http://www.w3.org/2000/svg" version="1.1" xmlns:xlink="http://www.w3.org/1999/xlink" width="512" height="512" x="0" y="0" viewBox="0 0 56 56" style="enable-background:new 0 0 512 512" xml:space="preserve" class=""><g><path fill="#000000" fill-rule="nonzero" d="M46 51v4a1 1 0 0 1-1 1H21a1 1 0 0 1-1-1v-4a1 1 0 0 1 1-1h24a1 1 0 0 1 1 1zm5.757-28.372L33.373 4.242 36.908.707a1 1 0 0 1 1.414 0l16.972 16.97a1 1 0 0 1 0 1.414zM19 12c1.845 0 3.685.2 5.486.6a5.016 5.016 0 0 0 4.672-1.318l4.211-4.219 15.564 15.568-4.224 4.216a5 5 0 0 0-1.315 4.661c.402 1.803.605 3.645.606 5.492v11H22V37a3 3 0 0 0-3-3H8V12zM5 36H1a1 1 0 0 1-1-1V11a1 1 0 0 1 1-1h4a1 1 0 0 1 1 1v24a1 1 0 0 1-1 1z" opacity="1" data-original="#000000" class=""></path></g></svg>