<svg xmlns="http://www.w3.org/2000/svg" version="1.1" xmlns:xlink="http://www.w3.org/1999/xlink" width="512" height="512" x="0" y="0" viewBox="0 0 512 512" style="enable-background:new 0 0 512 512" xml:space="preserve" class=""><g><path d="M497 271h-91c-8.285 0-15 6.715-15 15v15h-30v-45c0-24.813-20.188-45-45-45h-15v-46h27.422c3.98 0 7.793-1.582 10.605-4.395L409.637 90H467c24.813 0 45-20.188 45-45S491.812 0 467 0h-88.422c-3.98 0-7.793 1.582-10.605 4.395L301 71.363V60c0-24.813-20.188-45-45-45s-45 20.188-45 45v15h-15c-8.285 0-15 6.715-15 15v60c0 8.285 6.715 15 15 15h15v46h-15c-24.813 0-45 20.188-45 45v45h-30v-15c0-8.285-6.715-15-15-15H15c-8.285 0-15 6.715-15 15v211c0 8.285 6.715 15 15 15h91c8.285 0 15-6.715 15-15v-15h270v15c0 8.285 6.715 15 15 15h91c8.285 0 15-6.715 15-15V286c0-8.285-6.715-15-15-15zm-76 90h61v61h-61zm0-60h61v30h-61zM241 60c0-8.27 6.73-15 15-15s15 6.73 15 15v15h-30zm-30 45h92.578c3.977 0 7.793-1.582 10.606-4.395L384.793 30H467c8.27 0 15 6.73 15 15s-6.73 15-15 15h-63.578a15.003 15.003 0 0 0-10.606 4.395L322.207 135H211zm30 60h30v46h-30zm-60 91c0-8.27 6.73-15 15-15h120c8.27 0 15 6.73 15 15v45H181zM30 361h61v61H30zm61-60v30H30v-30zm0 181H30v-30h61zm30-30V331h270v121zm300 30v-30h61v30zm0 0" fill="#000000" opacity="1" data-original="#000000" class=""></path></g></svg>