<svg xmlns="http://www.w3.org/2000/svg" version="1.1" xmlns:xlink="http://www.w3.org/1999/xlink" width="512" height="512" x="0" y="0" viewBox="0 0 512 512" style="enable-background:new 0 0 512 512" xml:space="preserve" class=""><g><path d="M165.37 116.88v127c1 1 6.48 5 29.26 8.11 16.71 2.31 38.5 3.58 61.35 3.58s44.63-1.27 61.35-3.58c22.79-3.15 28.25-7.14 29.28-8.11v-127zM256 246c-29.21 0-39.62-20.92-39.62-40.5 0-9.94 6.18-18.95 13.33-29.4 7.62-11.13 16.25-23.74 20.46-41a6 6 0 0 1 11.66 0c4.21 17.27 12.84 29.88 20.46 41 7.15 10.45 13.33 19.46 13.33 29.4 0 19.61-10.41 40.5-39.62 40.5zM346.63 64.82v16.49H165.37V64.9C184.2 40.15 217.1 26 256 26s71.88 14.12 90.63 38.82z" fill="#000000" opacity="1" data-original="#000000" class=""></path><path d="M370.78 261.42c-2.95 4.14-10.91 8-22.32 11.32l-.18.05-.24.06h-.12c-21.91 6.26-56.19 10.44-91.84 10.44h-.16c-35.64 0-69.92-4.18-91.84-10.44h-.12l-.24-.06-.18-.05c-11.41-3.31-19.37-7.18-22.32-11.32a3.1 3.1 0 0 1-.61-3.22c.47-1.34 2.76-5.53 13.58-9.69 2.93 6.84 13.89 11.45 34.45 14.68 17.82 2.79 41.74 4.33 67.36 4.33s49.54-1.54 67.36-4.33c20.56-3.23 31.52-7.84 34.45-14.68 10.82 4.16 13.11 8.35 13.58 9.69a3.1 3.1 0 0 1-.61 3.22z" fill="#000000" opacity="1" data-original="#000000" class=""></path><path d="M352.4 284.05c-2.76.83-5.65 1.59-8.63 2.31-7.08 1.71-14.71 3.12-22.51 4.28L256 334.78l-65.26-44.14c-7.8-1.16-15.43-2.57-22.51-4.28-3-.72-5.87-1.48-8.63-2.31-1.15-.34-2.27-.69-3.37-1.05v197a6 6 0 0 0 12 0v-71.35L256 349.27l87.77 59.38V480a6 6 0 0 0 12 0V283c-1.1.36-2.22.71-3.37 1.05zM168.23 394.16V289.89L245.29 342zM266.71 342l77.06-52.14v104.3zM283.62 205.53c0 10.64-3.59 28.5-27.62 28.5s-27.62-17.86-27.62-28.5c0-6.22 5-13.46 11.23-22.62 5.3-7.74 11.49-16.78 16.39-27.88 4.9 11.1 11.09 20.14 16.39 27.88 6.27 9.16 11.23 16.4 11.23 22.62zM165.37 93.31h181.26v11.57H165.37z" fill="#000000" opacity="1" data-original="#000000" class=""></path></g></svg>